<?xml version="1.0" encoding="UTF-8"?>
<svg width="32" height="32" viewBox="0 0 32 32" fill="none" xmlns="http://www.w3.org/2000/svg">
  <!-- Fundo circular -->
  <circle cx="16" cy="16" r="16" fill="#0066FF"/>
  
  <!-- Sol com gradiente -->
  <circle cx="22" cy="8" r="4" fill="white" fillOpacity="0.9"/>
  <path
    d="M22 2L22 3M27 8H28M17 8H16M25.5 4.5L26.5 3.5M18.5 4.5L17.5 3.5"
    stroke="white"
    strokeWidth="1.5"
    strokeLinecap="round"
  />
  
  <!-- Horizonte curvo -->
  <path
    d="M2 14C2 14 8 12 16 12C24 12 30 14 30 14"
    stroke="white"
    strokeWidth="1.5"
    strokeLinecap="round"
  />
  
  <!-- Guarda-sol estilizado -->
  <path
    d="M8 18C8 18 13 15 16 15C19 15 24 18 24 18"
    stroke="white"
    strokeWidth="2"
    strokeLinecap="round"
  />
  <path
    d="M16 15L16 24"
    stroke="white"
    strokeWidth="2"
    strokeLinecap="round"
  />
  
  <!-- Areia com mais movimento -->
  <path
    d="M3 22C3 22 6 20 11 21C16 22 19 20 24 21C29 22 30 22 30 22"
    stroke="white"
    strokeWidth="1.5"
    strokeLinecap="round"
  />
  <path
    d="M2 26C2 26 7 24 12 25C17 26 20 24 25 25C30 26 31 26 31 26"
    stroke="white"
    strokeWidth="1.5"
    strokeLinecap="round"
  />
  <path
    d="M1 30C1 30 6 28 11 29C16 30 19 28 24 29C29 30 30 30 30 30"
    stroke="white"
    strokeWidth="1.5"
    strokeLinecap="round"
  />
</svg> 